<?xml version="1.0" encoding="UTF-8" standalone="no"?>
<!DOCTYPE svg PUBLIC "-//W3C//DTD SVG 1.1//EN" "http://www.w3.org/Graphics/SVG/1.1/DTD/svg11.dtd">
<svg width="100%" height="100%" viewBox="0 0 285 285" version="1.1" xmlns="http://www.w3.org/2000/svg" xmlns:xlink="http://www.w3.org/1999/xlink" xml:space="preserve" xmlns:serif="http://www.serif.com/" style="fill-rule:evenodd;clip-rule:evenodd;stroke-linejoin:round;stroke-miterlimit:2;">
    <circle cx="142.1" cy="142.1" r="142.1" style="fill:#fff;"/>
    <path d="M142.1,0c-78.48,0 -142.1,63.621 -142.1,142.1c0,78.48 63.62,142.1 142.1,142.1c78.48,0 142.1,-63.62 142.1,-142.1c0,-78.479 -63.621,-142.1 -142.1,-142.1Zm61.947,23.616c29.264,15.332 52.151,41.178 63.627,72.53l-63.627,62.295l0,-134.825Zm-61.947,-15.199c19.513,0 38.048,4.184 54.761,11.698l0,89.125l-94.57,-94.794c12.574,-3.917 25.945,-6.029 39.809,-6.029Zm-47.355,8.64l62.946,63.096l-134.075,0c15.102,-28.826 40.41,-51.456 71.129,-63.096Zm-86.328,125.043c0,-19.513 4.183,-38.048 11.698,-54.761l89.214,0l-94.517,95.701c-4.147,-12.903 -6.395,-26.658 -6.395,-40.94Zm71.735,118.484c-28.478,-14.919 -50.911,-39.799 -62.672,-70.017l62.672,-63.458l0,133.475Zm61.948,15.199c-19.513,-0 -38.048,-4.184 -54.761,-11.698l0,-89.035l93.454,95.038c-12.25,3.699 -25.237,5.695 -38.693,5.695Zm46.278,-8.23l-62.446,-63.504l134.652,-0c-15.278,29.161 -41.001,51.988 -72.206,63.504Zm-13.301,-70.691l95.11,-93.118c3.634,12.151 5.595,25.024 5.595,38.357c-0,19.513 -4.184,38.048 -11.698,54.761l-89.007,0Z" style="fill:#231f20;fill-rule:nonzero;"/>
</svg>
