<?xml version="1.0" encoding="utf-8"?>
<!-- Generator: Adobe Illustrator 27.5.0, SVG Export Plug-In . SVG Version: 6.00 Build 0)  -->
<svg version="1.1" id="Layer_1" xmlns="http://www.w3.org/2000/svg" xmlns:xlink="http://www.w3.org/1999/xlink" x="0px" y="0px"
	 viewBox="0 0 3000 2000" style="enable-background:new 0 0 3000 2000;" xml:space="preserve">
<rect style="fill:#FFFFFF;" width="3000" height="2000"/>
<g>
	<path style="fill:#231F20;" d="M262.297,314.604l81.067-81.202c-18.428-29.135-47.153-51.109-81.067-60.796V314.604z"/>
	<path style="fill:#231F20;" d="M347.391,240.181L247.017,340.722h114.77c2.289-10.123,3.503-20.653,3.503-31.468
		C365.29,284.181,358.788,260.631,347.391,240.181z"/>
	<path style="fill:#231F20;" d="M217.313,348.361l80.428,81.88c29.782-18.391,52.267-47.463,62.098-81.88H217.313z"/>
	<path style="fill:#231F20;" d="M84.593,277.786c-2.289,10.123-3.503,20.653-3.503,31.468c0,25.223,6.58,48.906,18.105,69.44
		l100.203-100.908H84.593z"/>
	<path style="fill:#231F20;" d="M228.699,270.147l-80.971-81.311c-29.329,18.418-51.455,47.247-61.187,81.311H228.699z"/>
	<path style="fill:#231F20;" d="M191.722,333.21v114.642c10.123,2.288,20.653,3.503,31.468,3.503c24.525,0,47.6-6.213,67.734-17.151
		L191.722,333.21z"/>
	<path style="fill:#231F20;" d="M184.083,304.05l-80.844,81.413c18.437,28.958,47.069,50.792,80.844,60.439V304.05z"/>
	<path style="fill:#231F20;" d="M254.658,285.389V170.657c-10.123-2.288-20.653-3.503-31.468-3.503
		c-24.909,0-48.315,6.417-68.671,17.675L254.658,285.389z"/>
</g>
<path style="fill:#231F20;" d="M948.731,167.154c-78.479,0-142.1,63.621-142.1,142.1c0,78.48,63.62,142.1,142.1,142.1
	c78.48,0,142.101-63.62,142.101-142.1C1090.832,230.774,1027.211,167.154,948.731,167.154z M985.522,180.7
	c31.905,9.114,58.928,29.786,76.265,57.195l-76.265,76.393V180.7z M948.731,175.571c10.175,0,20.081,1.143,29.604,3.296v107.936
	l-94.208-94.604C903.278,181.607,925.299,175.571,948.731,175.571z M877.74,195.969l76.174,76.495H820.178
	C829.332,240.417,850.148,213.296,877.74,195.969z M815.049,309.254c0-10.174,1.142-20.081,3.295-29.604h108.005l-94.268,94.931
	C821.239,355.263,815.049,332.983,815.049,309.254z M911.941,437.808c-31.775-9.077-58.711-29.616-76.056-56.859l76.056-76.591
	V437.808z M948.731,442.937c-10.174,0-20.081-1.143-29.604-3.295V331.79l93.327,95.011
	C993.512,437.092,971.804,442.937,948.731,442.937z M1018.866,423.075l-75.664-77.03h134.084
	C1068.037,378.423,1046.884,405.773,1018.866,423.075z M971.147,338.858l94.428-94.586c10.722,19.238,16.839,41.394,16.839,64.981
	c0,10.174-1.143,20.081-3.296,29.604H971.147z"/>
<g>
	<path style="fill:#231F20;" d="M311.039,1258.059l52.036-51.398c-6.237-34.948-25.25-65.471-52.036-86.566V1258.059z"/>
	<path style="fill:#231F20;" d="M303.4,1187.693v-73.207c-22.828-15.64-50.448-24.796-80.21-24.796
		c-5.368,0-10.663,0.309-15.876,0.888L303.4,1187.693z"/>
	<path style="fill:#231F20;" d="M105.886,1151.581c-15.64,22.828-24.796,50.448-24.796,80.21c0,5.99,0.375,11.892,1.095,17.687
		l97.036-97.896H105.886z"/>
	<path style="fill:#231F20;" d="M340.495,1312.001c15.639-22.829,24.795-50.448,24.795-80.21c0-5.314-0.302-10.559-0.87-15.723
		l-97.122,95.933H340.495z"/>
	<path style="fill:#231F20;" d="M142.98,1275.841v73.255c22.828,15.64,50.448,24.796,80.209,24.796
		c5.597,0,11.115-0.335,16.544-0.964L142.98,1275.841z"/>
	<path style="fill:#231F20;" d="M249.366,1143.942l-51.457-52.008c-34.885,6.265-65.351,25.261-86.416,52.008H249.366z"/>
	<path style="fill:#231F20;" d="M197.413,1319.64l51.706,51.884c34.614-6.383,64.834-25.303,85.769-51.884H197.413z"/>
	<path style="fill:#231F20;" d="M135.341,1206.701L83.67,1258.83c6.58,34.149,25.375,63.948,51.671,84.658V1206.701z"/>
</g>
<path style="fill:#231F20;" d="M948.731,1089.69c-78.479,0-142.1,63.621-142.1,142.101s63.62,142.101,142.1,142.101
	c78.48,0,142.101-63.621,142.101-142.101S1027.211,1089.69,948.731,1089.69z M1031.377,1126.71
	c25.199,19.847,43.086,48.561,48.954,81.438l-48.954,48.354V1126.71z M948.731,1098.107c27.999,0,53.983,8.614,75.459,23.327v68.871
	l-90.395-91.362C938.7,1098.397,943.682,1098.107,948.731,1098.107z M924.948,1100.219l48.409,48.927H843.651
	C863.469,1123.983,892.129,1106.112,924.948,1100.219z M815.049,1231.791c0-27.999,8.613-53.982,23.327-75.459h68.991
	l-91.288,92.098C815.401,1242.979,815.049,1237.426,815.049,1231.791z M866.086,1336.872c-24.738-19.483-42.42-47.518-48.61-79.644
	l48.61-49.042V1336.872z M948.731,1365.475c-27.998,0-53.982-8.614-75.458-23.327v-68.916l91.023,91.336
	C959.188,1365.159,953.997,1365.475,948.731,1365.475z M973.125,1363.246l-48.643-48.81h129.331
	C1034.118,1339.442,1005.688,1357.242,973.125,1363.246z M990.227,1307.25l91.369-90.25c0.535,4.857,0.819,9.791,0.819,14.791
	c0,27.999-8.614,53.982-23.327,75.459H990.227z"/>
<g>
	<path style="fill:#231F20;" d="M206.004,836.604l66.378,67.503c33.17-12.24,60.512-36.504,76.753-67.503H206.004z"/>
	<path style="fill:#231F20;" d="M289.038,788.125l67.634-66.217c-12.199-33.326-36.528-60.8-67.634-77.097V788.125z"/>
	<path style="fill:#231F20;" d="M93.524,712.546c-7.988,17.766-12.435,37.468-12.435,58.209c0,15.181,2.39,29.802,6.798,43.518
		l100.468-101.727H93.524z"/>
	<path style="fill:#231F20;" d="M281.399,735.826V641.09c-17.765-7.988-37.467-12.435-58.209-12.435
		c-14.737,0-28.949,2.244-42.315,6.408L281.399,735.826z"/>
	<path style="fill:#231F20;" d="M365.29,770.755c0-14.172-2.085-27.856-5.947-40.772l-101.099,98.981h94.612
		C360.844,811.199,365.29,791.497,365.29,770.755z"/>
	<path style="fill:#231F20;" d="M164.981,805.78v94.641c17.766,7.987,37.468,12.434,58.209,12.434
		c14.303,0,28.109-2.122,41.129-6.053L164.981,805.78z"/>
	<path style="fill:#231F20;" d="M157.342,754.821l-66.618,67.453c12.501,32.121,36.348,58.567,66.618,74.426V754.821z"/>
	<path style="fill:#231F20;" d="M239.764,704.907l-66.91-67.068c-32.653,12.373-59.555,36.428-75.608,67.068H239.764z"/>
</g>
<path style="fill:#231F20;" d="M948.732,628.655c-78.48,0-142.1,63.621-142.1,142.1c0,78.48,63.62,142.1,142.1,142.1
	c78.48,0,142.1-63.62,142.1-142.1C1090.832,692.276,1027.211,628.655,948.732,628.655z M1010.679,652.271
	c29.264,15.332,52.151,41.178,63.627,72.53l-63.627,62.295V652.271z M948.732,637.072c19.513,0,38.048,4.184,54.761,11.698v89.125
	l-94.57-94.794C921.497,639.184,934.868,637.072,948.732,637.072z M901.377,645.712l62.946,63.096H830.248
	C845.35,679.982,870.658,657.352,901.377,645.712z M815.049,770.755c0-19.513,4.183-38.048,11.698-54.761h89.214l-94.517,95.701
	C817.297,798.792,815.049,785.037,815.049,770.755z M886.784,889.239c-28.478-14.919-50.911-39.799-62.672-70.017l62.672-63.458
	V889.239z M948.732,904.438c-19.513,0-38.048-4.184-54.761-11.698v-89.035l93.454,95.038
	C975.175,902.442,962.188,904.438,948.732,904.438z M995.01,896.208l-62.446-63.504h134.652
	C1051.938,861.865,1026.215,884.692,995.01,896.208z M981.709,825.517l95.11-93.118c3.634,12.151,5.595,25.024,5.595,38.357
	c0,19.513-4.184,38.048-11.698,54.761H981.709z"/>
<g>
	<path style="fill:#231F20;" d="M112.424,1747.43v32.321c20.443,25.409,49.444,43.639,82.632,50.305L112.424,1747.43z"/>
	<path style="fill:#231F20;" d="M362.301,1719.855l-82.37,81.656h32.264C337.355,1781.27,355.476,1752.637,362.301,1719.855z"/>
	<path style="fill:#231F20;" d="M166.446,1579.98h-32.262c-25.146,20.231-43.26,48.844-50.093,81.603L166.446,1579.98z"/>
	<path style="fill:#231F20;" d="M184.954,1809.151l22.867,22.865c5.05,0.543,10.176,0.829,15.37,0.829
		c29.057,0,56.071-8.728,78.579-23.694H184.954z"/>
	<path style="fill:#231F20;" d="M261.542,1572.341l-22.813-22.846c-5.104-0.556-10.287-0.85-15.539-0.85
		c-29.056,0-56.071,8.729-78.579,23.695H261.542z"/>
	<path style="fill:#231F20;" d="M341.595,1729.625l22.757-22.56c0.613-5.356,0.938-10.8,0.938-16.319
		c0-29.057-8.728-56.071-23.695-78.579V1729.625z"/>
	<path style="fill:#231F20;" d="M104.785,1651.832l-22.751,22.543c-0.616,5.372-0.944,10.833-0.944,16.371
		c0,29.057,8.728,56.07,23.695,78.578V1651.832z"/>
	<path style="fill:#231F20;" d="M333.956,1634.053v-32.312c-20.409-25.366-49.344-43.578-82.461-50.272L333.956,1634.053z"/>
</g>
<path style="fill:#231F20;" d="M948.731,1548.646c-78.479,0-142.1,63.621-142.1,142.101s63.62,142.1,142.1,142.1
	c78.48,0,142.101-63.62,142.101-142.1S1027.211,1548.646,948.731,1548.646z M1052.937,1607.013v30.397l-77.577-77.691
	C1006.515,1566.017,1033.737,1583.149,1052.937,1607.013z M948.732,1557.063c4.941,0,9.816,0.277,14.618,0.799l21.461,21.493
	H874.808C895.982,1565.274,921.396,1557.063,948.732,1557.063z M864.998,1586.541h30.351l-77.477,76.77
	C824.301,1632.492,841.342,1605.574,864.998,1586.541z M837.34,1764.67c-14.081-21.175-22.292-46.589-22.292-73.924
	c0-5.21,0.308-10.348,0.888-15.401l21.403-21.208V1764.67z M844.527,1774.479v-30.407l77.738,77.732
	C891.042,1815.533,863.759,1798.383,844.527,1774.479z M948.732,1824.429c-4.886,0-9.709-0.27-14.459-0.78l-21.513-21.511h109.896
	C1001.481,1816.218,976.067,1824.429,948.732,1824.429z M1032.464,1794.951h-30.353l77.491-76.82
	C1073.182,1748.971,1056.134,1775.907,1032.464,1794.951z M1060.123,1727.322v-110.5c14.081,21.174,22.292,46.588,22.292,73.924
	c0,5.192-0.307,10.313-0.883,15.353L1060.123,1727.322z"/>
<g>
	<path style="fill:#231F20;" d="M632.318,183.139c25.67,9.506,47.848,26.665,63.61,49.285l-63.61,63.716V183.139L632.318,183.139z
		 M624.679,172.605v141.999l81.067-81.202C687.317,204.267,658.592,182.293,624.679,172.605L624.679,172.605z"/>
	<path style="fill:#231F20;" d="M707.736,253.033c8.068,17.539,12.297,36.779,12.297,56.221c0,7.999-0.709,15.989-2.11,23.83
		h-90.104L707.736,253.033L707.736,253.033z M709.773,240.181L609.398,340.722h114.771c2.289-10.123,3.503-20.653,3.503-31.468
		C727.672,284.181,721.169,260.63,709.773,240.181L709.773,240.181z"/>
	<path style="fill:#231F20;" d="M711.688,356c-9.679,26.157-27.261,48.629-50.487,64.438L597.906,356H711.688L711.688,356z
		 M722.22,348.361H579.694l80.428,81.88C689.904,411.851,712.389,382.778,722.22,348.361L722.22,348.361z"/>
	<path style="fill:#231F20;" d="M543.428,285.425l-79.853,80.414c-8.178-17.637-12.465-37.004-12.465-56.585
		c0-7.998,0.709-15.989,2.11-23.829H543.428L543.428,285.425z M561.779,277.786H446.975c-2.289,10.123-3.503,20.653-3.503,31.468
		c0,25.223,6.58,48.906,18.105,69.44L561.779,277.786L561.779,277.786z"/>
	<path style="fill:#231F20;" d="M509.101,198.649l63.591,63.858H459.457C469.014,236.694,486.301,214.427,509.101,198.649
		L509.101,198.649z M510.109,188.836c-29.329,18.418-51.456,47.247-61.186,81.311H591.08L510.109,188.836L510.109,188.836z"/>
	<path style="fill:#231F20;" d="M561.742,351.888l78.723,80.144c-17.168,7.667-35.949,11.684-54.893,11.684
		c-7.999,0-15.989-0.709-23.83-2.111V351.888L561.742,351.888z M554.103,333.21v114.642c10.123,2.288,20.654,3.503,31.469,3.503
		c24.525,0,47.599-6.213,67.734-17.151L554.103,333.21L554.103,333.21z"/>
	<path style="fill:#231F20;" d="M538.825,322.584v112.785c-25.54-9.459-47.636-26.503-63.384-48.956L538.825,322.584
		L538.825,322.584z M546.464,304.05l-80.844,81.413c18.437,28.958,47.069,50.792,80.844,60.439V304.05L546.464,304.05z"/>
	<path style="fill:#231F20;" d="M585.571,174.793c7.999,0,15.989,0.708,23.83,2.11v89.988l-79.652-79.986
		C547.179,178.958,566.28,174.793,585.571,174.793L585.571,174.793z M585.571,167.154c-24.908,0-48.315,6.417-68.671,17.675
		l100.14,100.56V170.657C606.917,168.368,596.386,167.154,585.571,167.154L585.571,167.154z"/>
</g>
<g>
	<path style="fill:#231F20;" d="M681.06,1137.119c18.231,18.371,30.804,41.585,36.12,66.979l-36.12,35.677V1137.119L681.06,1137.119
		z M673.42,1120.094v137.965l52.036-51.398C719.22,1171.712,700.206,1141.189,673.42,1120.094L673.42,1120.094z"/>
	<path style="fill:#231F20;" d="M587.129,1097.339c25.356,0.288,49.794,7.606,71.013,21.245v50.528L587.129,1097.339
		L587.129,1097.339z M585.571,1089.69c-5.368,0-10.663,0.309-15.876,0.888l96.086,97.115v-73.207
		C642.953,1098.847,615.333,1089.69,585.571,1089.69L585.571,1089.69z"/>
	<path style="fill:#231F20;" d="M523.274,1159.22l-72.163,72.804c0-0.077,0-0.154,0-0.232c0-25.913,7.336-50.916,21.254-72.571
		H523.274L523.274,1159.22z M541.602,1151.581h-73.335c-15.64,22.828-24.796,50.448-24.796,80.21c0,5.99,0.375,11.892,1.095,17.687
		L541.602,1151.581L541.602,1151.581z"/>
	<path style="fill:#231F20;" d="M720.022,1233.502c-0.315,25.303-7.631,49.682-21.243,70.859h-50.495L720.022,1233.502
		L720.022,1233.502z M726.802,1216.068l-97.122,95.933h73.197c15.639-22.829,24.795-50.448,24.795-80.21
		C727.672,1226.476,727.37,1221.232,726.802,1216.068L726.802,1216.068z"/>
	<path style="fill:#231F20;" d="M513.001,1294.328l71.674,71.921c-25.593-0.167-50.27-7.493-71.674-21.251V1294.328
		L513.001,1294.328z M505.362,1275.841v73.255c22.828,15.64,50.448,24.796,80.209,24.796c5.597,0,11.116-0.335,16.544-0.964
		L505.362,1275.841L505.362,1275.841z"/>
	<path style="fill:#231F20;" d="M557.737,1100.215l35.706,36.088H490.9C509.236,1118.107,532.397,1105.547,557.737,1100.215
		L557.737,1100.215z M560.291,1091.935c-34.885,6.265-65.351,25.261-86.416,52.007h137.873L560.291,1091.935L560.291,1091.935z"/>
	<path style="fill:#231F20;" d="M680.241,1327.278c-18.182,18.036-41.126,30.547-66.221,35.952l-35.828-35.952H680.241
		L680.241,1327.278z M697.269,1319.64H559.795l51.705,51.884C646.114,1365.141,676.334,1346.221,697.269,1319.64L697.269,1319.64z"
		/>
	<path style="fill:#231F20;" d="M490.084,1225.259v101.198c-17.768-17.919-30.192-40.492-35.717-65.164L490.084,1225.259
		L490.084,1225.259z M497.723,1206.701l-51.671,52.129c6.579,34.149,25.375,63.948,51.671,84.658V1206.701L497.723,1206.701z"/>
</g>
<g>
	<path style="fill:#231F20;" d="M698.192,844.243c-14.875,22.8-36.256,40.544-61.511,50.919l-50.07-50.919H698.192L698.192,844.243z
		 M711.516,836.604h-143.13l66.378,67.503C667.934,891.866,695.275,867.602,711.516,836.604L711.516,836.604z"/>
	<path style="fill:#231F20;" d="M659.059,658.137c10.19,6.654,19.415,14.652,27.532,23.881c9.971,11.338,17.87,24.086,23.524,37.951
		l-51.056,49.986V658.137L659.059,658.137z M651.419,644.811v143.314l67.634-66.217
		C706.854,688.582,682.525,661.108,651.419,644.811L651.419,644.811z"/>
	<path style="fill:#231F20;" d="M532.456,720.185l-78.273,79.254c-2.042-9.386-3.073-18.989-3.073-28.684
		c0-17.535,3.306-34.523,9.833-50.57H532.456L532.456,720.185z M550.737,712.546h-94.832c-7.988,17.766-12.435,37.468-12.435,58.209
		c0,15.181,2.39,29.802,6.798,43.518L550.737,712.546L550.737,712.546z"/>
	<path style="fill:#231F20;" d="M585.571,636.294c17.536,0,34.524,3.306,50.57,9.834v71.225l-78.062-78.246
		C567.08,637.237,576.282,636.294,585.571,636.294L585.571,636.294z M585.571,628.655c-14.737,0-28.949,2.244-42.315,6.408
		L643.78,735.826V641.09C626.015,633.102,606.313,628.655,585.571,628.655L585.571,628.655z"/>
	<path style="fill:#231F20;" d="M717.521,744.791c1.669,8.523,2.512,17.214,2.512,25.965c0,17.536-3.306,34.524-9.833,50.57h-70.852
		L717.521,744.791L717.521,744.791z M721.725,729.983l-101.099,98.981h94.612c7.988-17.766,12.435-37.468,12.435-58.209
		C727.672,756.583,725.587,742.899,721.725,729.983L721.725,729.983z"/>
	<path style="fill:#231F20;" d="M535.002,824.444l76.889,78.191c-8.635,1.715-17.445,2.581-26.319,2.581
		c-17.535,0-34.523-3.306-50.57-9.834V824.444L535.002,824.444z M527.362,805.78v94.641c17.766,7.987,37.468,12.434,58.209,12.434
		c14.303,0,28.109-2.122,41.129-6.053L527.362,805.78L527.362,805.78z"/>
	<path style="fill:#231F20;" d="M512.084,773.427v109.945c-22.093-14.429-39.506-35.039-49.995-59.323L512.084,773.427
		L512.084,773.427z M519.724,754.821l-66.619,67.453c12.501,32.121,36.348,58.567,66.619,74.426V754.821L519.724,754.821z"/>
	<path style="fill:#231F20;" d="M533.388,646.804l50.346,50.465h-110.78C487.608,674.82,508.609,657.239,533.388,646.804
		L533.388,646.804z M535.236,637.839c-32.653,12.372-59.556,36.428-75.608,67.068h142.518L535.236,637.839L535.236,637.839z"/>
</g>
<g>
	<path style="fill:#231F20;" d="M482.445,1765.87l47.149,47.146c-18.052-8.288-34.219-20.562-47.149-35.999V1765.87L482.445,1765.87
		z M474.806,1747.43v32.321c20.443,25.409,49.444,43.639,82.632,50.305L474.806,1747.43L474.806,1747.43z"/>
	<path style="fill:#231F20;" d="M707.334,1747.81c-8.282,17.617-20.378,33.402-35.492,46.063h-10.974L707.334,1747.81
		L707.334,1747.81z M724.682,1719.855l-82.37,81.656h32.264C699.736,1781.27,717.857,1752.637,724.682,1719.855L724.682,1719.855z"
		/>
	<path style="fill:#231F20;" d="M510.265,1587.619l-46.428,46.004c8.281-17.596,20.365-33.357,35.462-46.004H510.265
		L510.265,1587.619z M528.828,1579.98h-32.261c-25.146,20.231-43.261,48.844-50.094,81.603L528.828,1579.98L528.828,1579.98z"/>
	<path style="fill:#231F20;" d="M632.49,1816.79c-14.898,5.549-30.746,8.417-46.919,8.417c-3.933,0-7.925-0.177-11.903-0.527
		l-7.891-7.89H632.49L632.49,1816.79z M664.15,1809.151H547.335l22.867,22.865c5.05,0.543,10.176,0.829,15.37,0.829
		C614.628,1832.846,641.642,1824.118,664.15,1809.151L664.15,1809.151z"/>
	<path style="fill:#231F20;" d="M585.571,1556.285c3.984,0,8.031,0.182,12.065,0.542l7.863,7.875h-66.848
		C553.551,1559.153,569.399,1556.285,585.571,1556.285L585.571,1556.285z M585.571,1548.646c-29.056,0-56.071,8.729-78.579,23.695
		h116.93l-22.813-22.846C596.006,1548.939,590.824,1548.646,585.571,1548.646L585.571,1548.646z"/>
	<path style="fill:#231F20;" d="M711.616,1643.826c5.548,14.899,8.417,30.747,8.417,46.92c0,4.228-0.206,8.525-0.613,12.813
		l-7.804,7.737V1643.826L711.616,1643.826z M703.977,1612.167v117.458l22.757-22.56c0.613-5.356,0.938-10.8,0.938-16.319
		C727.672,1661.689,718.944,1634.675,703.977,1612.167L703.977,1612.167z"/>
	<path style="fill:#231F20;" d="M459.527,1670.154v67.511c-5.549-14.898-8.417-30.746-8.417-46.919c0-4.244,0.207-8.56,0.618-12.863
		L459.527,1670.154L459.527,1670.154z M467.167,1651.832l-22.751,22.543c-0.616,5.372-0.944,10.833-0.944,16.371
		c0,29.057,8.728,56.07,23.695,78.578V1651.832L467.167,1651.832z"/>
	<path style="fill:#231F20;" d="M641.74,1568.563c17.978,8.287,34.073,20.527,46.959,35.912v11.116L641.74,1568.563L641.74,1568.563
		z M613.877,1551.469l82.461,82.584v-32.312C675.929,1576.375,646.993,1558.163,613.877,1551.469L613.877,1551.469z"/>
</g>
<g>
	<path style="fill:#231F20;" d="M1348.321,193.712v120.065l68.545-68.659C1401.285,220.483,1376.996,201.904,1348.321,193.712z"/>
	<path style="fill:#231F20;" d="M1432.444,335.862c1.935-8.56,2.962-17.463,2.962-26.608c0-21.2-5.498-41.113-15.135-58.404
		l-84.87,85.012H1432.444z"/>
	<path style="fill:#231F20;" d="M1378.29,411.553c25.182-15.55,44.193-40.132,52.506-69.232h-120.511L1378.29,411.553z"/>
	<path style="fill:#231F20;" d="M1198.065,282.647c-1.936,8.559-2.962,17.463-2.962,26.607c0,21.327,5.563,41.352,15.308,58.714
		l84.726-85.322H1198.065z"/>
	<path style="fill:#231F20;" d="M1251.448,207.436c-24.798,15.573-43.508,39.949-51.735,68.751h120.2L1251.448,207.436z"/>
	<path style="fill:#231F20;" d="M1288.647,426.443c8.559,1.935,17.463,2.962,26.607,2.962c20.737,0,40.247-5.253,57.272-14.502
		l-83.879-85.394V426.443z"/>
	<path style="fill:#231F20;" d="M1282.188,424.795V304.853l-68.357,68.838C1229.419,398.177,1253.629,416.638,1282.188,424.795z"/>
	<path style="fill:#231F20;" d="M1341.862,192.065c-8.56-1.936-17.463-2.962-26.608-2.962c-21.061,0-40.853,5.425-58.064,14.945
		l84.672,85.027V192.065z"/>
	<path style="fill:#231F20;" d="M1446.183,253.939c-7.158-16.923-17.402-32.118-30.448-45.165
		c-13.046-13.046-28.241-23.29-45.164-30.448c-17.527-7.414-36.138-11.172-55.316-11.172s-37.789,3.759-55.315,11.172
		c-16.923,7.158-32.119,17.402-45.165,30.448c-13.046,13.046-23.29,28.242-30.448,45.165c-7.414,17.527-11.172,36.138-11.172,55.315
		s3.759,37.789,11.172,55.316c7.158,16.923,17.402,32.118,30.448,45.164c13.046,13.046,28.242,23.291,45.165,30.448
		c17.527,7.413,36.138,11.172,55.315,11.172s37.789-3.759,55.316-11.172c16.923-7.158,32.118-17.402,45.164-30.448
		c13.046-13.046,23.29-28.241,30.448-45.164c7.413-17.527,11.172-36.138,11.172-55.316S1453.596,271.465,1446.183,253.939z
		 M1315.254,438.436c-71.345,0-129.182-57.837-129.182-129.182s57.836-129.182,129.182-129.182s129.182,57.836,129.182,129.182
		S1386.6,438.436,1315.254,438.436z"/>
</g>
<g>
	<path style="fill:#231F20;" d="M1356.848,883.509c28.047-10.35,51.165-30.866,64.897-57.076h-121.022L1356.848,883.509z"/>
	<path style="fill:#231F20;" d="M1370.932,664.265v121.177l57.187-55.989C1417.804,701.275,1397.233,678.044,1370.932,664.265z"/>
	<path style="fill:#231F20;" d="M1205.617,721.538c-6.754,15.021-10.514,31.68-10.514,49.218c0,12.836,2.021,25.199,5.748,36.796
		l84.949-86.014H1205.617z"/>
	<path style="fill:#231F20;" d="M1364.472,661.118c-15.021-6.754-31.68-10.514-49.218-10.514c-12.461,0-24.478,1.898-35.779,5.418
		l84.997,85.199V661.118z"/>
	<path style="fill:#231F20;" d="M1424.892,819.974c6.753-15.021,10.514-31.681,10.514-49.218c0-11.983-1.763-23.553-5.029-34.474
		l-85.483,83.692H1424.892z"/>
	<path style="fill:#231F20;" d="M1266.037,880.393c15.021,6.753,31.68,10.514,49.218,10.514c12.094,0,23.767-1.794,34.777-5.118
		l-83.995-85.418V880.393z"/>
	<path style="fill:#231F20;" d="M1259.577,877.246V757.282l-56.328,57.034C1213.819,841.476,1233.983,863.837,1259.577,877.246z"/>
	<path style="fill:#231F20;" d="M1272.693,658.37c-27.609,10.462-50.356,30.801-63.93,56.709h120.504L1272.693,658.37z"/>
	<path style="fill:#231F20;" d="M1446.183,715.44c-7.158-16.923-17.402-32.118-30.448-45.164
		c-13.046-13.046-28.241-23.29-45.164-30.448c-17.527-7.413-36.138-11.172-55.316-11.172s-37.789,3.759-55.315,11.172
		c-16.923,7.158-32.119,17.402-45.165,30.448c-13.046,13.046-23.29,28.242-30.448,45.164c-7.414,17.527-11.172,36.138-11.172,55.315
		c0,19.178,3.759,37.789,11.172,55.316c7.158,16.923,17.402,32.118,30.448,45.164s28.242,23.29,45.165,30.448
		c17.527,7.413,36.138,11.172,55.315,11.172s37.789-3.759,55.316-11.172c16.923-7.158,32.118-17.402,45.164-30.448
		s23.29-28.241,30.448-45.164c7.413-17.527,11.172-36.138,11.172-55.316C1457.354,751.578,1453.596,732.967,1446.183,715.44z
		 M1315.254,899.938c-71.345,0-129.182-57.837-129.182-129.182s57.836-129.182,129.182-129.182s129.182,57.837,129.182,129.182
		S1386.6,899.938,1315.254,899.938z"/>
</g>
<g>
	<path style="fill:#231F20;" d="M1389.534,1137.347v116.654l43.998-43.459C1428.259,1180.992,1412.183,1155.185,1389.534,1137.347z"
		/>
	<path style="fill:#231F20;" d="M1383.075,1132.605c-19.302-13.224-42.656-20.966-67.821-20.966c-4.539,0-9.016,0.261-13.424,0.751
		l81.245,82.114V1132.605z"/>
	<path style="fill:#231F20;" d="M1216.069,1163.971c-13.224,19.302-20.965,42.655-20.965,67.82c0,5.064,0.317,10.055,0.925,14.955
		l82.047-82.775H1216.069z"/>
	<path style="fill:#231F20;" d="M1414.44,1299.611c13.224-19.303,20.965-42.656,20.965-67.82c0-4.494-0.255-8.928-0.736-13.294
		l-82.12,81.114H1414.44z"/>
	<path style="fill:#231F20;" d="M1247.434,1330.977c19.302,13.224,42.656,20.966,67.82,20.966c4.733,0,9.398-0.283,13.988-0.815
		l-81.809-82.09V1330.977z"/>
	<path style="fill:#231F20;" d="M1293.878,1113.537c-29.497,5.297-55.256,21.358-73.068,43.975h116.577L1293.878,1113.537z"/>
	<path style="fill:#231F20;" d="M1337.178,1349.94c29.267-5.397,54.82-21.395,72.521-43.87h-116.24L1337.178,1349.94z"/>
	<path style="fill:#231F20;" d="M1240.975,1326.235v-115.659l-43.69,44.077C1202.849,1283.528,1218.741,1308.725,1240.975,1326.235z
		"/>
	<path style="fill:#231F20;" d="M1446.183,1176.476c-7.158-16.923-17.402-32.118-30.448-45.165
		c-13.046-13.046-28.241-23.29-45.164-30.447c-17.527-7.414-36.138-11.172-55.316-11.172s-37.789,3.758-55.315,11.172
		c-16.923,7.157-32.119,17.401-45.165,30.447c-13.046,13.047-23.29,28.242-30.448,45.165c-7.414,17.526-11.172,36.138-11.172,55.315
		s3.759,37.789,11.172,55.315c7.158,16.923,17.402,32.118,30.448,45.165c13.046,13.046,28.242,23.29,45.165,30.447
		c17.527,7.414,36.138,11.172,55.315,11.172s37.789-3.758,55.316-11.172c16.923-7.157,32.118-17.401,45.164-30.447
		c13.046-13.047,23.29-28.242,30.448-45.165c7.413-17.526,11.172-36.138,11.172-55.315S1453.596,1194.002,1446.183,1176.476z
		 M1315.254,1360.973c-71.345,0-129.182-57.836-129.182-129.182s57.836-129.182,129.182-129.182s129.182,57.836,129.182,129.182
		S1386.6,1360.973,1315.254,1360.973z"/>
</g>
<g>
	<path style="fill:#231F20;" d="M1221.598,1766.003c17.286,21.484,41.807,36.898,69.869,42.535l-69.869-69.864V1766.003z"/>
	<path style="fill:#231F20;" d="M1390.512,1784.403c21.273-17.116,36.596-41.327,42.366-69.044l-69.647,69.044H1390.512z"/>
	<path style="fill:#231F20;" d="M1239.997,1597.089c-21.262,17.107-36.578,41.3-42.356,68.998l69.634-68.998H1239.997z"/>
	<path style="fill:#231F20;" d="M1302.259,1810.195c4.27,0.459,8.604,0.702,12.996,0.702c24.568,0,47.41-7.38,66.441-20.035h-98.771
		L1302.259,1810.195z"/>
	<path style="fill:#231F20;" d="M1328.394,1571.313c-4.316-0.47-8.698-0.718-13.139-0.718c-24.568,0-47.41,7.38-66.441,20.035
		h98.869L1328.394,1571.313z"/>
	<path style="fill:#231F20;" d="M1435.406,1690.746c0-24.568-7.38-47.41-20.035-66.441v99.314l19.242-19.075
		C1435.13,1700.016,1435.406,1695.413,1435.406,1690.746z"/>
	<path style="fill:#231F20;" d="M1195.104,1690.746c0,24.568,7.38,47.41,20.035,66.441v-99.346l-19.237,19.062
		C1195.38,1681.446,1195.104,1686.063,1195.104,1690.746z"/>
	<path style="fill:#231F20;" d="M1339.188,1572.981l69.724,69.828v-27.321C1391.655,1594.041,1367.189,1578.642,1339.188,1572.981z"
		/>
	<path style="fill:#231F20;" d="M1446.183,1635.43c-7.158-16.922-17.402-32.117-30.448-45.164
		c-13.046-13.046-28.241-23.29-45.164-30.447c-17.527-7.414-36.138-11.173-55.316-11.173s-37.789,3.759-55.315,11.173
		c-16.923,7.157-32.119,17.401-45.165,30.447c-13.046,13.047-23.29,28.242-30.448,45.164c-7.414,17.527-11.172,36.139-11.172,55.316
		s3.759,37.788,11.172,55.315c7.158,16.923,17.402,32.118,30.448,45.164s28.242,23.29,45.165,30.448
		c17.527,7.413,36.138,11.172,55.315,11.172s37.789-3.759,55.316-11.172c16.923-7.158,32.118-17.402,45.164-30.448
		s23.29-28.241,30.448-45.164c7.413-17.527,11.172-36.138,11.172-55.315S1453.596,1652.957,1446.183,1635.43z M1315.254,1819.928
		c-71.345,0-129.182-57.837-129.182-129.182c0-71.346,57.836-129.183,129.182-129.183s129.182,57.837,129.182,129.183
		C1444.437,1762.091,1386.6,1819.928,1315.254,1819.928z"/>
</g>
<g>
	<path style="fill:#231F20;" d="M1560.449,236.149c-12.842,21.359-20.232,46.368-20.232,73.105c0,7.814,0.641,15.478,1.854,22.949
		c6.46-8.585,13.917-16.515,22.3-23.639c28.895-24.556,65.438-36.732,103.18-34.462l19.017-0.136
		C1652.911,240.092,1605.013,227.013,1560.449,236.149z"/>
	<path style="fill:#231F20;" d="M1600.325,226.036c38.052,3.088,73.125,20.179,98.245,48.814l11.085,11.852
		c-3.02-48.453-31.204-90.266-71.555-112.513c-29.281,9.577-54.375,28.402-71.822,53.033
		C1577.413,225.525,1588.821,225.104,1600.325,226.036z"/>
	<path style="fill:#231F20;" d="M1773.711,390.393c-2.043,0-4.085-0.042-6.139-0.126c-38.788-1.596-74.672-18.156-101.042-46.63
		l-11.701-11.952c1.024,47.974,26.875,90.462,65.515,114.497c33.269-9.223,61.629-30.242,80.298-58.274
		C1791.837,389.553,1782.83,390.393,1773.711,390.393z"/>
	<path style="fill:#231F20;" d="M1821.698,281.643c-6.146,8.918-13.329,17.215-21.489,24.729
		c-27.146,25.001-62.005,38.585-98.698,38.585c-1.903,0-3.809-0.037-5.722-0.11l-17.635-0.305
		c34.876,33.288,83.569,44.938,128.094,34.213c11.547-20.548,18.141-44.253,18.141-69.501
		C1824.389,299.806,1823.458,290.575,1821.698,281.643z"/>
	<path style="fill:#231F20;" d="M1544.175,342.651c8.493,35.252,30.125,65.38,59.431,84.913c-1.906-10.424-2.687-21.13-2.281-31.972
		c1.441-38.535,17.664-74.254,45.69-100.679l13.15-13.425C1612.584,281.017,1569.507,305.157,1544.175,342.651z"/>
	<path style="fill:#231F20;" d="M1759.817,220.886c0.096,38.82-14.885,75.393-42.182,102.979l-0.045-0.044v0.051l-13.409,13.409
		c48.269-0.963,91.033-27.064,115.045-66.082c-9.767-35.213-32.744-64.931-63.269-83.471
		C1758.474,198.472,1759.789,209.579,1759.817,220.886z"/>
	<path style="fill:#231F20;" d="M1686.105,427.915c-26.305-28.348-40.32-65.201-39.099-103.824l0.008-18.406
		c-33.122,34.743-44.772,83.141-34.291,127.47c20.566,11.574,44.299,18.185,69.579,18.185c9.461,0,18.702-0.933,27.646-2.697
		C1701.373,442.679,1693.377,435.752,1686.105,427.915z"/>
	<path style="fill:#231F20;" d="M1674.579,191.936c27.519,27.382,42.786,63.835,42.99,102.644h-0.036l0.058,0.057v18.082
		c32.151-36.41,41.791-85.937,28.969-130.22c-19.297-9.802-41.13-15.331-64.257-15.331c-11.671,0-23.01,1.417-33.863,4.071
		C1657.804,177.055,1666.575,183.971,1674.579,191.936z"/>
</g>
<g>
	<path style="fill:#231F20;" d="M1660.365,900.113c-27.472-27.337-42.732-63.714-42.986-102.45l-0.003-0.003v-42.602
		c-29.696,33.692-40.14,78.587-31.37,120.167c23.58,21.75,54.537,35.62,88.697,37.421
		C1669.7,908.81,1664.908,904.633,1660.365,900.113z"/>
	<path style="fill:#231F20;" d="M1676.825,628.794c-34.106,1.294-65.131,14.607-88.965,35.83c6.082-0.78,12.25-1.189,18.479-1.204
		c0.123-0.001,0.248-0.001,0.371-0.001c38.684,0,74.994,15.202,102.492,42.413l30.265,30.265
		C1736.724,691.235,1712.406,652.053,1676.825,628.794z"/>
	<path style="fill:#231F20;" d="M1778.623,666.316c-23.469-21.652-54.247-35.494-88.218-37.403
		c4.872,3.761,9.543,7.849,13.976,12.26c27.519,27.383,42.786,63.835,42.99,102.643l-0.132,42.593
		C1776.917,752.736,1787.364,707.875,1778.623,666.316z"/>
	<path style="fill:#231F20;" d="M1758.314,877.642c-0.123,0-0.248,0-0.371,0c-38.569,0-74.893-14.887-102.363-41.946l-30.273-30.105
		c2.874,44.837,27.297,83.965,62.958,107.126c34.212-1.412,65.302-14.915,89.104-36.358
		C1771.102,877.188,1764.74,877.626,1758.314,877.642z"/>
	<path style="fill:#231F20;" d="M1788.146,675.977c0.799,6.153,1.218,12.394,1.233,18.698c0.097,38.801-14.869,75.354-42.14,102.935
		l-30.104,30.154c44.827-2.857,83.951-27.252,107.128-62.884C1822.873,730.769,1809.461,699.761,1788.146,675.977z"/>
	<path style="fill:#231F20;" d="M1578.145,674.142c-21.853,23.547-35.819,54.509-37.699,88.698
		c3.766-4.88,7.857-9.558,12.275-13.996c27.383-27.518,63.836-42.759,102.645-42.963l0.047-0.047h42.976
		C1664.725,675.983,1619.786,665.436,1578.145,674.142z"/>
	<path style="fill:#231F20;" d="M1811.709,792.702c-27.348,27.483-63.744,42.745-102.499,42.987l-42.407,0.007
		c33.736,29.606,78.639,39.967,120.198,31.121c21.602-23.533,35.374-54.366,37.185-88.378
		C1820.364,783.416,1816.206,788.183,1811.709,792.702z"/>
	<path style="fill:#231F20;" d="M1647.477,713.769c-44.791,2.795-83.904,27.094-107.134,62.629
		c1.335,34.214,14.762,65.319,36.135,89.163c-0.805-6.175-1.228-12.439-1.243-18.766c-0.097-38.821,14.884-75.393,42.182-102.979
		L1647.477,713.769z"/>
</g>
<g>
	<path style="fill:#231F20;" d="M1645.988,1143.942h61.529c-27.746-24.462-63.091-35.869-97.929-34.236
		c-27.221,16.247-48.547,41.337-60.019,71.308c26.565-23.792,60.479-36.907,96.418-37.097V1143.942z"/>
	<path style="fill:#231F20;" d="M1718.73,1143.981l43.501,43.501c-2.325-36.92-19.258-69.98-45.052-93.459
		c-11.16-2.816-22.843-4.318-34.877-4.318c-20.637,0-40.243,4.404-57.938,12.317c35.597,1.968,68.838,16.673,94.378,41.945
		L1718.73,1143.981z"/>
	<path style="fill:#231F20;" d="M1645.914,1319.64l-43.534-43.534c2.342,36.934,19.301,70.003,45.126,93.473
		c11.136,2.803,22.791,4.299,34.797,4.299c20.678,0,40.321-4.421,58.044-12.363c-35.599-1.943-68.847-16.626-94.4-41.874H1645.914z"
		/>
	<path style="fill:#231F20;" d="M1594.457,1268.183l-0.003-0.003v-61.598c-24.461,27.762-35.858,63.125-34.206,97.974
		c16.262,27.22,41.367,48.539,71.353,59.997C1607.801,1338.004,1594.672,1304.107,1594.457,1268.183z"/>
	<path style="fill:#231F20;" d="M1815.065,1282.491c-26.546,23.785-60.432,36.907-96.346,37.12l-0.028,0.028h-61.54
		c27.761,24.447,63.118,35.836,97.96,34.181C1782.311,1337.557,1803.613,1312.461,1815.065,1282.491z"/>
	<path style="fill:#231F20;" d="M1594.507,1195.326l0.013,0.012l43.5-43.501c-36.935,2.327-70.006,19.271-93.485,45.083
		c-2.815,11.158-4.317,22.839-4.317,34.871c0,20.658,4.413,40.283,12.341,57.992
		C1554.509,1254.157,1569.217,1220.884,1594.507,1195.326z"/>
	<path style="fill:#231F20;" d="M1770.15,1195.402L1770.15,1195.402l0.001,0.045v0.002l0,0v61.5
		c24.448-27.746,35.848-63.085,34.211-97.915c-16.249-27.201-41.329-48.511-71.284-59.977
		C1756.845,1125.607,1769.95,1159.492,1770.15,1195.402z"/>
	<path style="fill:#231F20;" d="M1770.151,1268.15v0.029l-43.509,43.509c36.92-2.34,69.977-19.287,93.445-45.095
		c2.805-11.138,4.301-22.795,4.301-34.803c0-20.658-4.413-40.285-12.342-57.994
		C1810.086,1209.38,1795.398,1242.612,1770.151,1268.15z"/>
</g>
<g>
	<path style="fill:#231F20;" d="M1800.707,1641.708v86.87c10.143-11.521,18.034-24.35,23.68-37.908
		c-0.019-31.957-10.588-61.444-28.412-85.172c3.048,11.685,4.659,23.825,4.73,36.209L1800.707,1641.708z"/>
	<path style="fill:#231F20;" d="M1800.707,1739.798l-61.391,61.391c15.459-1.054,30.232-4.666,43.9-10.421
		c21.01-21.198,35.382-48.979,39.758-79.977c-6.106,10.434-13.556,20.173-22.268,28.993V1739.798z"/>
	<path style="fill:#231F20;" d="M1633.257,1809.158l-0.078-0.078c-0.288-0.28-0.581-0.555-0.867-0.838l0.015-0.015l-60.439-60.439
		c1.092,15.525,4.761,30.356,10.591,44.065c21.343,21.075,49.323,35.438,80.524,39.676c-10.704-6.083-20.694-13.574-29.742-22.371
		H1633.257z"/>
	<path style="fill:#231F20;" d="M1731.479,1572.48l61.305,61.306c-0.967-15.306-4.445-29.945-10.025-43.516
		c-21.231-21.226-49.151-35.755-80.324-40.177c10.466,6.128,20.235,13.604,29.077,22.354L1731.479,1572.48z"/>
	<path style="fill:#231F20;" d="M1633.251,1572.354l0.006-0.005h86.945c-11.523-10.144-24.354-18.036-37.916-23.681
		c-32.04,0.003-61.601,10.615-85.366,28.511C1608.641,1574.089,1620.822,1572.445,1633.251,1572.354z"/>
	<path style="fill:#231F20;" d="M1563.896,1739.798v-86.909c-10.158,11.579-18.051,24.472-23.678,38.095
		c0.051,32.121,10.764,61.738,28.784,85.513c-3.21-11.822-4.938-24.124-5.089-36.681L1563.896,1739.798z"/>
	<path style="fill:#231F20;" d="M1731.359,1809.146l-0.013,0.013h-86.788c11.835,10.23,25.013,18.123,38.926,23.666
		c31.687-0.259,60.899-10.885,84.414-28.66C1756.117,1807.325,1743.864,1809.02,1731.359,1809.146z"/>
	<path style="fill:#231F20;" d="M1564.167,1641.438l61.15-61.15c-15.363,1-30.053,4.528-43.659,10.173
		c-21.174,21.248-35.654,49.162-40.038,80.318c6.159-10.575,13.691-20.443,22.521-29.366L1564.167,1641.438z"/>
</g>
<g>
	<path style="fill:#231F20;" d="M2907.738,253.939c-7.158-16.923-17.402-32.118-30.448-45.165
		c-13.046-13.046-28.241-23.29-45.164-30.448c-17.527-7.414-36.139-11.172-55.315-11.172c-19.178,0-37.789,3.759-55.316,11.172
		c-16.923,7.158-32.118,17.402-45.164,30.448c-13.046,13.046-23.291,28.242-30.448,45.165
		c-7.413,17.527-11.172,36.138-11.172,55.315s3.759,37.789,11.172,55.316c7.157,16.923,17.402,32.118,30.448,45.164
		c13.046,13.046,28.241,23.291,45.164,30.448c17.527,7.413,36.139,11.172,55.316,11.172c19.177,0,37.788-3.759,55.315-11.172
		c16.923-7.158,32.118-17.402,45.164-30.448c13.046-13.046,23.29-28.241,30.448-45.164c7.413-17.527,11.172-36.138,11.172-55.316
		S2915.151,271.465,2907.738,253.939z M2776.811,438.436c-71.346,0-129.183-57.837-129.183-129.182s57.837-129.182,129.183-129.182
		c71.345,0,129.182,57.836,129.182,129.182S2848.155,438.436,2776.811,438.436z"/>
	<path style="fill:#231F20;" d="M2677.094,308.67c24.432-20.763,55.331-31.059,87.242-29.139l16.08-0.115
		c-28.458-28.643-68.958-39.701-106.639-31.976c-10.857,18.06-17.106,39.206-17.106,61.813c0,6.607,0.542,13.087,1.567,19.404
		C2663.701,321.399,2670.006,314.695,2677.094,308.67z"/>
	<path style="fill:#231F20;" d="M2707.494,238.89c32.175,2.611,61.83,17.062,83.07,41.275l9.373,10.021
		c-2.554-40.969-26.384-76.323-60.502-95.134c-24.758,8.098-45.977,24.015-60.729,44.841
		C2688.122,238.458,2697.768,238.101,2707.494,238.89z"/>
	<path style="fill:#231F20;" d="M2848.908,377.753c-32.796-1.35-63.138-15.352-85.435-39.427l-9.894-10.106
		c0.866,40.563,22.724,76.489,55.395,96.811c28.131-7.798,52.109-25.571,67.895-49.273c-7.443,1.391-15.059,2.102-22.77,2.102
		C2852.371,377.86,2850.645,377.825,2848.908,377.753z"/>
	<path style="fill:#231F20;" d="M2876.505,306.817c-22.954,21.14-52.429,32.625-83.454,32.625c-1.609,0-3.22-0.031-4.838-0.093
		l-14.911-0.258c29.489,28.146,70.661,37.997,108.309,28.928c9.764-17.374,15.339-37.417,15.339-58.766
		c0-7.989-0.787-15.794-2.275-23.346C2889.478,293.448,2883.403,300.463,2876.505,306.817z"/>
	<path style="fill:#231F20;" d="M2708.34,382.256c1.219-32.583,14.936-62.785,38.633-85.128l11.119-11.352
		c-40.232-0.398-76.655,20.014-98.074,51.716c7.181,29.808,25.472,55.282,50.25,71.797
		C2708.656,400.476,2707.997,391.423,2708.34,382.256z"/>
	<path style="fill:#231F20;" d="M2839.089,206.497c2.127,9.087,3.239,18.478,3.263,28.038c0.081,32.824-12.586,63.747-35.666,87.073
		l-0.038-0.038v0.042l-11.338,11.337c40.813-0.814,76.972-22.883,97.274-55.875C2884.326,247.301,2864.898,222.173,2839.089,206.497
		z"/>
	<path style="fill:#231F20;" d="M2780.025,409.586c-22.242-23.97-34.093-55.129-33.06-87.788l0.007-15.563
		c-28.006,29.377-37.856,70.299-28.994,107.781c17.389,9.786,37.456,15.375,58.832,15.375c7.998,0,15.813-0.789,23.374-2.28
		C2792.935,422.07,2786.174,416.213,2780.025,409.586z"/>
	<path style="fill:#231F20;" d="M2806.629,296.846l-0.03,0.001l0.049,0.048v15.289c27.186-30.786,35.336-72.663,24.494-110.106
		c-16.316-8.288-34.777-12.963-54.331-12.963c-9.869,0-19.456,1.199-28.633,3.443c7.918,4.917,15.334,10.765,22.102,17.499
		C2793.548,233.21,2806.456,264.033,2806.629,296.846z"/>
</g>
<g>
	<path style="fill:#231F20;" d="M2907.738,715.44c-7.158-16.923-17.402-32.118-30.448-45.164
		c-13.046-13.046-28.241-23.29-45.164-30.448c-17.527-7.413-36.139-11.172-55.315-11.172c-19.178,0-37.789,3.759-55.316,11.172
		c-16.923,7.158-32.118,17.402-45.164,30.448c-13.046,13.046-23.291,28.242-30.448,45.164
		c-7.413,17.527-11.172,36.138-11.172,55.316c0,19.178,3.759,37.789,11.172,55.316c7.157,16.923,17.402,32.118,30.448,45.164
		s28.241,23.29,45.164,30.448c17.527,7.413,36.139,11.172,55.316,11.172c19.177,0,37.788-3.759,55.315-11.172
		c16.923-7.158,32.118-17.402,45.164-30.448s23.29-28.241,30.448-45.164c7.413-17.527,11.172-36.138,11.172-55.316
		C2918.91,751.578,2915.151,732.967,2907.738,715.44z M2776.811,899.938c-71.346,0-129.183-57.837-129.183-129.182
		s57.837-129.182,129.183-129.182c71.345,0,129.182,57.837,129.182,129.182S2848.155,899.938,2776.811,899.938z"/>
	<path style="fill:#231F20;" d="M2721.914,793.507l-0.002-0.002v-36.022c-25.109,28.489-33.939,66.449-26.525,101.607
		c19.938,18.391,46.114,30.118,74.998,31.642c-4.23-3.245-8.283-6.776-12.123-10.598
		C2735.032,857.018,2722.129,826.26,2721.914,793.507z"/>
	<path style="fill:#231F20;" d="M2712.895,679.998c32.707,0,63.409,12.854,86.66,35.862l25.59,25.59
		c-2.32-37.932-22.881-71.063-52.967-90.729c-28.838,1.095-55.07,12.351-75.223,30.296c5.143-0.66,10.358-1.004,15.625-1.018
		C2712.685,679.998,2712.789,679.998,2712.895,679.998z"/>
	<path style="fill:#231F20;" d="M2831.828,747.977l-0.111,36.014c25.094-28.472,33.927-66.404,26.535-101.543
		c-19.844-18.308-45.867-30.011-74.592-31.625c4.121,3.18,8.069,6.636,11.818,10.366
		C2818.746,684.342,2831.655,715.164,2831.828,747.977z"/>
	<path style="fill:#231F20;" d="M2840.767,861.132c-32.611,0-63.324-12.587-86.552-35.467l-25.598-25.456
		c2.431,37.912,23.081,70.996,53.233,90.58c28.929-1.194,55.216-12.611,75.342-30.742c-5.3,0.701-10.678,1.071-16.111,1.084
		C2840.977,861.132,2840.871,861.132,2840.767,861.132z"/>
	<path style="fill:#231F20;" d="M2867.348,706.426c0.081,32.808-12.573,63.715-35.631,87.036l-25.455,25.497
		c37.903-2.415,70.984-23.042,90.581-53.171c-1.176-28.842-12.516-55.06-30.539-75.171
		C2866.979,695.818,2867.334,701.096,2867.348,706.426z"/>
	<path style="fill:#231F20;" d="M2754.033,715.901l0.039-0.04h36.338c-28.464-25.239-66.461-34.157-101.67-26.795
		c-18.477,19.91-30.287,46.09-31.876,74.997c3.184-4.127,6.644-8.081,10.379-11.835
		C2690.396,728.96,2721.219,716.073,2754.033,715.901z"/>
	<path style="fill:#231F20;" d="M2799.562,825.659l-35.857,0.006c28.525,25.032,66.492,33.793,101.632,26.314
		c18.266-19.898,29.91-45.969,31.441-74.727c-3.23,4.207-6.747,8.238-10.549,12.059
		C2863.104,812.55,2832.329,825.455,2799.562,825.659z"/>
	<path style="fill:#231F20;" d="M2721.945,747.977l25.418-25.407c-37.873,2.364-70.944,22.909-90.586,52.956
		c1.128,28.929,12.481,55.23,30.553,75.391c-0.68-5.221-1.037-10.517-1.051-15.867
		C2686.198,802.225,2698.864,771.302,2721.945,747.977z"/>
</g>
<g>
	<path style="fill:#231F20;" d="M2907.738,1176.476c-7.158-16.923-17.402-32.118-30.448-45.165
		c-13.046-13.046-28.241-23.29-45.164-30.447c-17.527-7.414-36.139-11.172-55.315-11.172c-19.178,0-37.789,3.758-55.316,11.172
		c-16.923,7.157-32.118,17.401-45.164,30.447c-13.046,13.047-23.291,28.242-30.448,45.165
		c-7.413,17.526-11.172,36.138-11.172,55.315s3.759,37.789,11.172,55.315c7.157,16.923,17.402,32.118,30.448,45.165
		c13.046,13.046,28.241,23.29,45.164,30.447c17.527,7.414,36.139,11.172,55.316,11.172c19.177,0,37.788-3.758,55.315-11.172
		c16.923-7.157,32.118-17.401,45.164-30.447c13.046-13.047,23.29-28.242,30.448-45.165c7.413-17.526,11.172-36.138,11.172-55.315
		S2915.151,1194.002,2907.738,1176.476z M2776.811,1360.973c-71.346,0-129.183-57.836-129.183-129.182
		s57.837-129.182,129.183-129.182c71.345,0,129.182,57.836,129.182,129.182S2848.155,1360.973,2776.811,1360.973z"/>
	<path style="fill:#231F20;" d="M2746.104,1157.512h52.025c-23.46-20.684-53.346-30.329-82.802-28.948
		c-23.017,13.738-41.049,34.952-50.749,60.293c22.462-20.116,51.138-31.206,81.525-31.366V1157.512z"/>
	<path style="fill:#231F20;" d="M2807.611,1157.545l36.781,36.781c-1.966-31.217-16.283-59.172-38.093-79.022
		c-9.437-2.382-19.314-3.651-29.489-3.651c-17.449,0-34.027,3.724-48.989,10.414c30.099,1.664,58.206,14.098,79.8,35.467
		L2807.611,1157.545z"/>
	<path style="fill:#231F20;" d="M2746.042,1306.07l-36.81-36.81c1.979,31.229,16.319,59.189,38.155,79.034
		c9.415,2.371,19.271,3.635,29.423,3.635c17.482,0,34.093-3.738,49.077-10.453c-30.1-1.644-58.212-14.058-79.818-35.406H2746.042z"
		/>
	<path style="fill:#231F20;" d="M2702.53,1262.559v-52.082c-20.683,23.473-30.319,53.374-28.923,82.84
		c13.75,23.015,34.979,41.041,60.332,50.729c-20.124-22.448-31.225-51.108-31.406-81.484L2702.53,1262.559z"/>
	<path style="fill:#231F20;" d="M2807.578,1306.07h-52.035c23.473,20.671,53.369,30.301,82.83,28.901
		c22.997-13.752,41.01-34.972,50.692-60.312c-22.445,20.111-51.097,31.206-81.464,31.386L2807.578,1306.07z"/>
	<path style="fill:#231F20;" d="M2702.586,1200.969l36.781-36.781c-31.229,1.967-59.193,16.294-79.046,38.119
		c-2.381,9.435-3.65,19.311-3.65,29.484c0,17.467,3.731,34.062,10.435,49.035c1.649-30.124,14.086-58.258,35.47-79.868
		L2702.586,1200.969z"/>
	<path style="fill:#231F20;" d="M2819.742,1119.56c20.096,22.449,31.178,51.101,31.347,81.463l0.001,0.001v0.037
		c0,0,0,0.002,0,0.003l0,0v52c20.672-23.46,30.31-53.341,28.926-82.791C2866.277,1147.273,2845.071,1129.255,2819.742,1119.56z"/>
	<path style="fill:#231F20;" d="M2851.09,1262.559l-36.789,36.789c31.217-1.979,59.168-16.308,79.012-38.13
		c2.371-9.417,3.637-19.273,3.637-29.427c0-17.468-3.732-34.063-10.436-49.037c-1.658,30.088-14.077,58.187-35.424,79.78V1262.559z"
		/>
</g>
<g>
	<path style="fill:#231F20;" d="M2907.738,1635.43c-7.158-16.922-17.402-32.117-30.448-45.164
		c-13.046-13.046-28.241-23.29-45.164-30.447c-17.527-7.414-36.139-11.173-55.315-11.173c-19.178,0-37.789,3.759-55.316,11.173
		c-16.923,7.157-32.118,17.401-45.164,30.447c-13.046,13.047-23.291,28.242-30.448,45.164
		c-7.413,17.527-11.172,36.139-11.172,55.316s3.759,37.788,11.172,55.315c7.157,16.923,17.402,32.118,30.448,45.164
		s28.241,23.29,45.164,30.448c17.527,7.413,36.139,11.172,55.316,11.172c19.177,0,37.788-3.759,55.315-11.172
		c16.923-7.158,32.118-17.402,45.164-30.448s23.29-28.241,30.448-45.164c7.413-17.527,11.172-36.138,11.172-55.315
		S2915.151,1652.957,2907.738,1635.43z M2776.811,1819.928c-71.346,0-129.183-57.837-129.183-129.182
		c0-71.346,57.837-129.183,129.183-129.183c71.345,0,129.182,57.837,129.182,129.183
		C2905.992,1762.091,2848.155,1819.928,2776.811,1819.928z"/>
	<path style="fill:#231F20;" d="M2876.925,1649.283v73.451c8.576-9.742,15.249-20.588,20.022-32.053
		c-0.016-27.021-8.953-51.953-24.023-72.016c2.576,9.879,3.939,20.145,4,30.615L2876.925,1649.283z"/>
	<path style="fill:#231F20;" d="M2876.925,1732.222l-51.907,51.908c13.07-0.892,25.563-3.946,37.119-8.812
		c17.765-17.924,29.917-41.415,33.617-67.624c-5.164,8.822-11.462,17.058-18.829,24.516V1732.222z"/>
	<path style="fill:#231F20;" d="M2735.34,1790.868l-0.066-0.065c-0.243-0.237-0.491-0.47-0.733-0.709l0.013-0.013l-51.104-51.104
		c0.922,13.127,4.025,25.668,8.955,37.259c18.046,17.82,41.704,29.964,68.086,33.548c-9.051-5.145-17.498-11.478-25.148-18.916
		H2735.34z"/>
	<path style="fill:#231F20;" d="M2793.832,1571.819c8.85,5.181,17.109,11.503,24.586,18.9l-0.027,0.028l51.836,51.836
		c-0.818-12.941-3.76-25.319-8.478-36.794C2843.797,1587.843,2820.189,1575.559,2793.832,1571.819z"/>
	<path style="fill:#231F20;" d="M2735.34,1590.637h73.516c-9.744-8.577-20.593-15.25-32.06-20.023
		c-27.092,0.003-52.085,8.976-72.181,24.106c9.91-2.612,20.211-4.001,30.72-4.079L2735.34,1590.637z"/>
	<path style="fill:#231F20;" d="M2676.693,1732.222v-73.485c-8.59,9.791-15.263,20.691-20.021,32.21
		c0.044,27.16,9.102,52.202,24.339,72.305c-2.714-9.996-4.176-20.397-4.303-31.015L2676.693,1732.222z"/>
	<path style="fill:#231F20;" d="M2818.278,1790.868h-73.383c10.007,8.649,21.149,15.324,32.913,20.011
		c26.793-0.219,51.493-9.204,71.375-24.233c-9.961,2.673-20.321,4.105-30.895,4.212L2818.278,1790.868z"/>
	<path style="fill:#231F20;" d="M2676.921,1649.055l51.705-51.705c-12.989,0.845-25.41,3.829-36.915,8.602
		c-17.902,17.966-30.146,41.568-33.854,67.912c5.207-8.941,11.576-17.285,19.042-24.83L2676.921,1649.055z"/>
</g>
<g>
	<path style="fill:#231F20;" d="M1952.897,240.958c17.134,0,33.835,3.259,49.638,9.688c10.068,4.095,19.467,9.36,28.098,15.73
		c-2.501-0.12-5.018-0.181-7.503-0.181c-36.24,0-71.471,12.98-99.203,36.549c-4.019,3.415-7.858,7.029-11.499,10.821
		c-0.047-1.439-0.069-2.876-0.069-4.311c0-23.293,6.02-46.126,17.438-66.255C1937.401,241.644,1945.156,240.958,1952.897,240.958
		L1952.897,240.958z M1952.897,233.319c-9.355,0-18.72,0.939-27.946,2.831c-12.842,21.358-20.232,46.367-20.232,73.105
		c0,7.814,0.642,15.478,1.854,22.949c6.46-8.585,13.917-16.515,22.3-23.639c26.611-22.615,59.71-34.73,94.257-34.73
		c2.964,0,5.939,0.089,8.923,0.269l19.017-0.136C2024.381,247.105,1988.732,233.319,1952.897,233.319L1952.897,233.319z"/>
	<path style="fill:#231F20;" d="M2001.816,182.527c17.747,10.388,32.964,24.934,44.147,42.237
		c7.681,11.884,13.353,24.939,16.82,38.566c-25.654-26.01-59.888-41.868-97.339-44.908c-4.175-0.339-8.407-0.51-12.582-0.51
		c-1.592,0-3.187,0.025-4.782,0.075c5.691-6.154,11.951-11.77,18.723-16.79C1977.533,193.241,1989.297,186.97,2001.816,182.527
		L2001.816,182.527z M2002.604,174.189c-29.281,9.577-54.376,28.402-71.822,53.033c7.26-1.106,14.639-1.671,22.082-1.671
		c3.973-0.001,7.961,0.161,11.964,0.485c38.053,3.088,73.125,20.179,98.245,48.814l11.085,11.852
		C2071.138,238.249,2042.953,196.436,2002.604,174.189L2002.604,174.189z"/>
	<path style="fill:#231F20;" d="M2029.19,352.752c27.354,27.559,63.567,43.542,102.569,45.147c2.139,0.088,4.31,0.133,6.453,0.133
		c3.278,0,6.56-0.104,9.831-0.313c-16.493,18.871-37.953,32.833-62.001,40.159c-16.948-11.162-31.236-26.249-41.458-43.811
		C2037.127,381.253,2031.929,367.242,2029.19,352.752L2029.19,352.752z M2019.331,331.685
		c1.025,47.974,26.875,90.462,65.515,114.497c33.27-9.223,61.629-30.242,80.298-58.274c-8.804,1.645-17.811,2.485-26.931,2.485
		c-2.043,0-4.085-0.042-6.139-0.126c-38.787-1.596-74.672-18.156-101.042-46.63L2019.331,331.685L2019.331,331.685z"/>
	<path style="fill:#231F20;" d="M2180.979,300.679c0.182,2.855,0.272,5.717,0.272,8.575c0,21.917-5.37,43.562-15.557,62.817
		c-9.035,1.932-18.289,2.911-27.559,2.911c-26.538,0-51.948-7.84-73.396-22.391c0.425,0.003,0.85,0.005,1.271,0.005
		c38.553,0,75.442-14.42,103.874-40.605C2173.778,308.407,2177.482,304.629,2180.979,300.679L2180.979,300.679z M2186.201,281.643
		c-6.146,8.918-13.33,17.215-21.489,24.729c-27.147,25.001-62.005,38.585-98.699,38.585c-1.903,0-3.809-0.037-5.721-0.11
		l-17.636-0.305c26.482,25.276,60.939,38.079,95.48,38.079c10.948,0,21.898-1.285,32.613-3.866
		c11.547-20.548,18.141-44.253,18.141-69.501C2188.891,299.805,2187.96,290.575,2186.201,281.643L2186.201,281.643z"/>
	<path style="fill:#231F20;" d="M2005.174,290.405c-28.815,27.7-45.484,64.891-46.98,104.901c-0.19,5.081-0.131,10.165,0.174,15.225
		c-20.082-17.508-34.503-40.508-41.429-66.384c11.594-16.23,26.903-29.771,44.461-39.293
		C1975.026,297.464,1989.904,292.575,2005.174,290.405L2005.174,290.405z M2023.302,281.48c-47.042,0-89.533,24.034-114.625,61.17
		c8.493,35.252,30.125,65.38,59.431,84.913c-1.906-10.424-2.686-21.13-2.28-31.972c1.441-38.535,17.664-74.254,45.69-100.679
		l13.15-13.425C2024.215,281.483,2023.755,281.48,2023.302,281.48L2023.302,281.48z"/>
	<path style="fill:#231F20;" d="M2131.049,204.456c8.475,6.816,16.092,14.639,22.754,23.383
		c9.725,12.762,16.991,26.938,21.629,42.182c-11.156,17.126-26.304,31.565-43.982,41.892c-13.084,7.644-27.415,12.928-42.234,15.64
		l0.518-0.517v-0.028c27.354-28.758,42.325-66.325,42.227-106.14C2131.945,215.379,2131.641,209.898,2131.049,204.456
		L2131.049,204.456z M2120.461,187.726c2.516,10.747,3.83,21.854,3.858,33.16c0.097,38.82-14.884,75.393-42.182,102.979
		l-0.045-0.044v0.051l-13.408,13.409c48.269-0.963,91.032-27.064,115.044-66.082
		C2173.962,235.984,2150.984,206.266,2120.461,187.726L2120.461,187.726z"/>
	<path style="fill:#231F20;" d="M2003.803,327.345c-0.357,39.225,14.199,76.662,41.205,105.766
		c3.342,3.602,6.854,7.044,10.516,10.309c-2.903,0.188-5.813,0.282-8.719,0.282c-21.941,0-43.606-5.381-62.877-15.589
		c-4.16-19.881-3.657-40.676,1.483-60.356C1989.186,353.308,1995.439,339.617,2003.803,327.345L2003.803,327.345z M2011.518,305.685
		c-33.123,34.743-44.772,83.141-34.292,127.47c20.566,11.574,44.3,18.185,69.579,18.185c9.461,0,18.702-0.933,27.646-2.697
		c-8.575-5.964-16.57-12.891-23.843-20.728c-26.305-28.348-40.32-65.201-39.099-103.824L2011.518,305.685L2011.518,305.685z"/>
	<path style="fill:#231F20;" d="M2046.805,174.807c20.274,0,39.704,4.381,57.806,13.029c5.215,19.905,5.693,40.965,1.364,61.122
		c-3.106,14.461-8.668,28.275-16.361,40.799c-1.395-39.046-17.317-75.547-45.144-103.236c-3.878-3.859-7.956-7.509-12.209-10.93
		C2037.085,175.069,2041.941,174.807,2046.805,174.807L2046.805,174.807z M2046.805,167.168c-11.671,0-23.01,1.417-33.862,4.071
		c9.363,5.816,18.135,12.732,26.14,20.697c27.519,27.382,42.785,63.835,42.99,102.644h-0.037l0.058,0.057v18.082
		c32.152-36.41,41.792-85.937,28.97-130.22C2091.765,172.697,2069.932,167.168,2046.805,167.168L2046.805,167.168z"/>
</g>
<g>
	<path style="fill:#231F20;" d="M1974.239,778.269v19.392l0.003,3.114l0.052,0.053c0.996,37.766,15.573,73.239,41.357,100.756
		c-7.427-1.762-14.694-4.162-21.752-7.188c-13.313-5.706-25.545-13.485-36.398-23.142c-3.61-18.873-3.039-38.592,1.673-57.193
		C1962.366,801.456,1967.479,789.354,1974.239,778.269L1974.239,778.269z M1981.878,755.058
		c-29.696,33.692-40.139,78.587-31.37,120.167c23.581,21.75,54.538,35.62,88.698,37.421c-5.003-3.837-9.796-8.014-14.338-12.534
		c-27.473-27.337-42.732-63.714-42.987-102.45l-0.003-0.003V755.058L1981.878,755.058z"/>
	<path style="fill:#231F20;" d="M2039.177,636.542c15.892,10.82,29.418,25.195,39.217,41.702c6.657,11.214,11.59,23.434,14.626,36.1
		l-13.912-13.913l-0.015-0.014l-0.015-0.014c-27.707-27.417-63.789-43.098-102.147-44.517c6.042-3.684,12.374-6.885,18.957-9.582
		C2009.678,640.657,2024.228,637.377,2039.177,636.542L2039.177,636.542z M2041.327,628.794
		c-34.106,1.294-65.131,14.607-88.964,35.83c6.082-0.78,12.25-1.189,18.479-1.204c0.123-0.001,0.248-0.001,0.371-0.001
		c38.684,0,74.994,15.202,102.492,42.413l30.265,30.265C2101.226,691.235,2076.908,652.053,2041.327,628.794L2041.327,628.794z"/>
	<path style="fill:#231F20;" d="M2078.435,640.061c7.341,1.77,14.523,4.162,21.499,7.166c13.235,5.7,25.4,13.451,36.197,23.059
		c3.597,18.862,3.019,38.569-1.694,57.156c-3.182,12.545-8.266,24.594-14.983,35.638l0.059-19.24v-0.032v-0.032
		C2119.309,704.938,2104.766,668.339,2078.435,640.061L2078.435,640.061z M2054.907,628.913c4.873,3.761,9.543,7.849,13.977,12.26
		c27.518,27.383,42.785,63.835,42.989,102.643l-0.131,42.593c29.678-33.673,40.125-78.535,31.383-120.093
		C2119.656,644.664,2088.879,630.822,2054.907,628.913L2054.907,628.913z"/>
	<path style="fill:#231F20;" d="M2000.824,827.318l13.897,13.82c27.701,27.287,64.003,42.822,102.694,44.063
		c-6.088,3.764-12.474,7.036-19.12,9.793c-13.815,5.731-28.404,9.08-43.402,9.968c-15.925-10.775-29.494-25.113-39.343-41.598
		C2008.863,852.172,2003.896,839.97,2000.824,827.318L2000.824,827.318z M1989.809,805.591
		c2.875,44.837,27.297,83.965,62.958,107.126c34.213-1.412,65.302-14.915,89.105-36.358c-6.269,0.829-12.629,1.267-19.056,1.283
		c-0.123,0-0.247,0-0.371,0c-38.569,0-74.893-14.887-102.362-41.946L1989.809,805.591L1989.809,805.591z"/>
	<path style="fill:#231F20;" d="M2161.428,700.457c3.724,6.058,6.962,12.409,9.69,19.015c5.691,13.779,9.016,28.326,9.893,43.277
		c-10.781,15.911-25.123,29.468-41.605,39.304c-11.171,6.667-23.345,11.62-35.969,14.687l13.737-13.76
		C2144.51,775.333,2160.097,739.119,2161.428,700.457L2161.428,700.457z M2152.647,675.977c0.799,6.153,1.219,12.394,1.234,18.698
		c0.096,38.801-14.87,75.354-42.14,102.935l-30.104,30.154c44.827-2.857,83.951-27.252,107.128-62.884
		C2187.375,730.769,2173.964,699.761,2152.647,675.977L2152.647,675.977z"/>
	<path style="fill:#231F20;" d="M1971.221,678.829c24.468,0,48.181,6.773,68.619,19.365h-19.926h-3.164l-0.096,0.096
		c-37.679,0.957-73.065,15.411-100.56,41.018c5.179-21.483,15.63-41.536,30.508-58.165
		C1954.698,679.607,1962.968,678.829,1971.221,678.829L1971.221,678.829z M1971.221,671.19c-9.583,0-19.16,0.983-28.574,2.952
		c-21.852,23.547-35.819,54.509-37.699,88.698c3.766-4.88,7.858-9.558,12.275-13.996c27.383-27.518,63.836-42.759,102.645-42.963
		l0.047-0.047h42.976C2036.837,682.731,2004.025,671.19,1971.221,671.19L1971.221,671.19z"/>
	<path style="fill:#231F20;" d="M2177.614,801.981c-1.751,7.365-4.129,14.573-7.121,21.574
		c-5.667,13.258-13.392,25.451-22.978,36.277c-8.242,1.593-16.663,2.4-25.07,2.4c-24.148,0-47.589-6.608-67.858-18.901l19.127-0.003
		h0.023h0.023C2112.677,843.085,2149.337,828.447,2177.614,801.981L2177.614,801.981z M2188.688,778.44
		c-3.822,4.976-7.98,9.743-12.477,14.262c-27.349,27.483-63.745,42.745-102.499,42.987l-42.408,0.007
		c25.97,22.789,58.556,34.176,91.141,34.176c9.745,0,19.489-1.019,29.058-3.055C2173.105,843.284,2186.877,812.451,2188.688,778.44
		L2188.688,778.44z"/>
	<path style="fill:#231F20;" d="M1990.177,724.76l-13.659,13.653l-0.015,0.015l-0.015,0.015
		c-27.375,27.664-42.979,63.919-44.3,102.622c-3.74-6.086-6.991-12.469-9.728-19.108c-5.696-13.823-9.012-28.416-9.865-43.413
		c10.805-15.867,25.156-29.378,41.634-39.172C1965.397,732.734,1977.564,727.807,1990.177,724.76L1990.177,724.76z
		 M2011.979,713.769c-44.79,2.794-83.904,27.094-107.134,62.629c1.335,34.214,14.763,65.319,36.135,89.163
		c-0.804-6.175-1.228-12.439-1.243-18.766c-0.096-38.821,14.885-75.393,42.182-102.979L2011.979,713.769L2011.979,713.769z"/>
</g>
<g>
	<path style="fill:#231F20;" d="M1980.639,1117.191L1980.639,1117.191c24.292,0,47.854,6.683,68.201,19.111h-30.768v-0.065
		l-7.622,0.04c-26.447,0.14-52.148,7.063-74.781,19.875c10.635-15.577,24.513-28.912,40.696-38.892
		C1977.791,1117.215,1979.222,1117.191,1980.639,1117.191L1980.639,1117.191z M1980.639,1109.553c-2.184,0-4.365,0.051-6.547,0.153
		c-27.221,16.247-48.547,41.337-60.02,71.308c26.565-23.792,60.479-36.907,96.418-37.097v0.025h61.529
		C2046.012,1121.012,2013.324,1109.553,1980.639,1109.553L1980.639,1109.553z"/>
	<path style="fill:#231F20;" d="M2046.805,1097.344c10.515,0,20.981,1.221,31.145,3.631c18.906,17.705,31.917,40.124,37.823,64.743
		l-21.776-21.776l0.041-0.041l-5.419-5.362c-18.818-18.622-41.918-31.909-67.011-38.848
		C2029.848,1098.13,2038.262,1097.344,2046.805,1097.344L2046.805,1097.344z M2046.805,1089.705
		c-20.637,0-40.242,4.404-57.938,12.317c35.597,1.968,68.839,16.673,94.378,41.945l-0.013,0.014l43.501,43.501
		c-2.325-36.92-19.257-69.98-45.052-93.459C2070.521,1091.207,2058.84,1089.705,2046.805,1089.705L2046.805,1089.705z"/>
	<path style="fill:#231F20;" d="M1977.856,1297.883l27.159,27.158l2.27,2.238h0.072c18.404,17.452,40.666,29.948,64.761,36.591
		c-8.275,1.575-16.729,2.368-25.313,2.368c-10.486,0-20.929-1.216-31.069-3.613
		C1996.81,1344.927,1983.778,1322.508,1977.856,1297.883L1977.856,1297.883z M1966.883,1276.105
		c2.342,36.934,19.301,70.003,45.125,93.473c11.136,2.803,22.791,4.299,34.797,4.299c20.678,0,40.321-4.421,58.044-12.363
		c-35.599-1.943-68.847-16.626-94.399-41.874h-0.032L1966.883,1276.105L1966.883,1276.105z"/>
	<path style="fill:#231F20;" d="M1951.317,1229.733v38.446l0.004,3.19l0.052,0.052c0.674,25.313,7.557,49.844,19.862,71.552
		c-15.594-10.631-28.94-24.507-38.932-40.696C1931.444,1276.386,1938.09,1251.325,1951.317,1229.733L1951.317,1229.733z
		 M1958.956,1206.582c-24.461,27.762-35.858,63.125-34.206,97.974c16.262,27.22,41.368,48.539,71.353,59.997
		c-23.8-26.549-36.929-60.445-37.143-96.37l-0.004-0.003V1206.582L1958.956,1206.582z"/>
	<path style="fill:#231F20;" d="M2157.999,1307.345c-10.623,15.586-24.489,28.931-40.665,38.922
		c-1.453,0.048-2.912,0.072-4.358,0.072c-24.255,0-47.788-6.665-68.116-19.06h38.334h3.164l0.08-0.081
		C2111.751,1326.528,2136.287,1319.647,2157.999,1307.345L2157.999,1307.345z M2179.567,1282.491
		c-26.545,23.785-60.432,36.907-96.346,37.12l-0.028,0.028h-61.54c25.999,22.896,58.661,34.338,91.322,34.338
		c2.214,0,4.427-0.053,6.639-0.157C2146.813,1337.557,2168.115,1312.461,2179.567,1282.491L2179.567,1282.491z"/>
	<path style="fill:#231F20;" d="M1980.757,1162.799l-21.77,21.77l-0.041-0.04l-5.367,5.425
		c-18.641,18.838-31.935,41.959-38.866,67.081c-1.566-8.254-2.354-16.684-2.354-25.243c0-10.512,1.221-20.979,3.629-31.14
		C1933.695,1181.73,1956.127,1168.708,1980.757,1162.799L1980.757,1162.799z M2002.521,1151.837
		c-36.934,2.326-70.006,19.271-93.485,45.083c-2.815,11.158-4.317,22.839-4.317,34.871c0,20.658,4.414,40.283,12.341,57.992
		c1.951-35.626,16.659-68.899,41.949-94.457l0.013,0.012L2002.521,1151.837L2002.521,1151.837z"/>
	<path style="fill:#231F20;" d="M2122.427,1120.644c15.573,10.628,28.903,24.494,38.884,40.667
		c0.846,25.871-5.801,50.914-19.018,72.488v-38.352v-0.045l-0.001-3.165l-0.05-0.05
		C2141.581,1166.883,2134.713,1142.354,2122.427,1120.644L2122.427,1120.644z M2097.581,1099.058
		c23.767,26.55,36.872,60.435,37.072,96.345h0.001v0.045c0,0,0,0.001,0,0.002v61.5c24.448-27.746,35.847-63.085,34.21-97.915
		C2152.615,1131.833,2127.536,1110.523,2097.581,1099.058L2097.581,1099.058z"/>
	<path style="fill:#231F20;" d="M2178.892,1206.52c1.57,8.263,2.36,16.702,2.36,25.271c0,10.488-1.215,20.932-3.614,31.073
		c-17.693,18.911-40.104,31.932-64.716,37.851l27.134-27.134l2.237-2.267v-0.072
		C2159.743,1252.851,2172.241,1230.604,2178.892,1206.52L2178.892,1206.52z M2176.549,1173.797
		c-1.96,35.583-16.648,68.814-41.895,94.354v0.029l-43.51,43.509c36.92-2.34,69.978-19.287,93.445-45.095
		c2.805-11.138,4.301-22.795,4.301-34.803C2188.891,1211.133,2184.478,1191.506,2176.549,1173.797L2176.549,1173.797z"/>
</g>
<g>
	<path style="fill:#231F20;" d="M2172.848,1643.78c5.361,14.373,8.21,29.649,8.393,45.362c-2.418,5.62-5.22,11.041-8.393,16.24
		V1643.78L2172.848,1643.78z M2160.477,1605.498c3.048,11.685,4.66,23.825,4.731,36.209l0.001,0.001v86.87
		c10.143-11.521,18.034-24.35,23.68-37.908C2188.871,1658.713,2178.301,1629.226,2160.477,1605.498L2160.477,1605.498z"/>
	<path style="fill:#231F20;" d="M2169.065,1746.745c-0.659,1.437-1.344,2.863-2.056,4.28c-6.146,12.234-14.1,23.424-23.654,33.282
		c-5.734,2.335-11.607,4.25-17.589,5.736L2169.065,1746.745L2169.065,1746.745z M2187.478,1710.791
		c-6.107,10.434-13.556,20.173-22.269,28.993v0.014l-61.391,61.391c15.459-1.054,30.233-4.666,43.9-10.421
		C2168.729,1769.569,2183.102,1741.788,2187.478,1710.791L2187.478,1710.791z"/>
	<path style="fill:#231F20;" d="M1947.602,1769.804l38.453,38.452l-0.043,0.044l4.733,4.684c-1.273-0.585-2.538-1.19-3.795-1.815
		c-12.321-6.137-23.593-14.104-33.522-23.695C1951.058,1781.716,1949.113,1775.816,1947.602,1769.804L1947.602,1769.804z
		 M1936.389,1747.788c1.092,15.525,4.761,30.356,10.592,44.065c21.342,21.075,49.322,35.438,80.523,39.676
		c-10.704-6.083-20.693-13.574-29.742-22.371h-0.003l-0.077-0.078c-0.289-0.28-0.582-0.555-0.868-0.838l0.015-0.015
		L1936.389,1747.788L1936.389,1747.788z"/>
	<path style="fill:#231F20;" d="M2102.943,1568.557c1.49,0.686,2.97,1.4,4.438,2.142c12.291,6.212,23.518,14.247,33.389,23.896
		c2.257,5.678,4.104,11.49,5.531,17.402l-39.547-39.548l0.061-0.062L2102.943,1568.557L2102.943,1568.557z M2066.937,1550.094
		c10.466,6.128,20.235,13.604,29.077,22.354l-0.032,0.033l61.306,61.306c-0.968-15.306-4.446-29.945-10.026-43.516
		C2126.029,1569.045,2098.109,1554.516,2066.937,1550.094L2066.937,1550.094z"/>
	<path style="fill:#231F20;" d="M2045.26,1556.315c5.622,2.418,11.047,5.222,16.247,8.394h-61.677
		C2014.224,1559.34,2029.52,1556.49,2045.26,1556.315L2045.26,1556.315z M2046.788,1548.668c-32.04,0.003-61.6,10.615-85.366,28.511
		c11.721-3.09,23.903-4.733,36.332-4.825l0.005-0.005h86.946C2073.181,1562.205,2060.35,1554.313,2046.788,1548.668
		L2046.788,1548.668z"/>
	<path style="fill:#231F20;" d="M1920.76,1676.16v61.563c-5.344-14.328-8.191-29.557-8.389-45.227
		C1914.783,1686.845,1917.586,1681.389,1920.76,1676.16L1920.76,1676.16z M1928.399,1652.889
		c-10.159,11.579-18.051,24.472-23.679,38.095c0.052,32.121,10.765,61.738,28.785,85.513c-3.21-11.822-4.938-24.124-5.089-36.681
		l-0.018-0.018V1652.889L1928.399,1652.889z"/>
	<path style="fill:#231F20;" d="M2093.754,1816.797c-14.056,5.238-28.978,8.076-44.329,8.368c-5.795-2.387-11.39-5.182-16.755-8.368
		H2093.754L2093.754,1816.797z M2132.4,1804.164c-11.781,3.161-24.034,4.855-36.539,4.981l-0.012,0.013h-86.789
		c11.835,10.23,25.013,18.123,38.926,23.666C2079.674,1832.565,2108.887,1821.939,2132.4,1804.164L2132.4,1804.164z"/>
	<path style="fill:#231F20;" d="M1967.971,1591.334l-39.323,39.323l-0.055-0.054l-3.997,4.04c0.664-1.445,1.354-2.879,2.072-4.303
		c6.19-12.289,14.204-23.52,23.832-33.399C1956.199,1594.654,1962.033,1592.783,1967.971,1591.334L1967.971,1591.334z
		 M1989.819,1580.288c-15.362,1-30.052,4.528-43.659,10.173c-21.173,21.248-35.653,49.162-40.038,80.318
		c6.159-10.575,13.691-20.443,22.521-29.366l0.025,0.025L1989.819,1580.288L1989.819,1580.288z"/>
</g>
<path style="fill:#231F20;" d="M2415.336,167.154c-78.479,0-142.1,63.621-142.1,142.1c0,78.48,63.62,142.1,142.1,142.1
	c78.48,0,142.1-63.62,142.1-142.1C2557.436,230.774,2493.816,167.154,2415.336,167.154z M2544.162,273.448
	c-22.592,36.711-62.827,61.267-108.24,62.174l12.615-12.615v-0.048l0.042,0.042c25.683-25.955,39.778-60.364,39.688-96.889
	c-0.026-10.638-1.265-21.088-3.631-31.199C2513.354,212.356,2534.973,240.317,2544.162,273.448z M2415.336,175.571
	c21.759,0,42.301,5.203,60.457,14.425c12.064,41.665,2.995,88.262-27.256,122.519v-17.013l-0.054-0.054h0.034
	c-0.193-36.513-14.558-70.811-40.448-96.574c-7.53-7.494-15.783-14.001-24.594-19.472
	C2393.688,176.905,2404.355,175.571,2415.336,175.571z M2373.748,182.177c37.965,20.932,64.481,60.271,67.323,105.859l-10.431-11.15
	c-23.634-26.942-56.633-43.022-92.434-45.927c-10.823-0.878-21.557-0.481-32.033,1.115
	C2322.588,208.899,2346.199,191.188,2373.748,182.177z M2281.653,309.254c0-25.156,6.953-48.686,19.035-68.781
	c41.929-8.596,86.994,3.709,118.659,35.58l-17.892,0.128c-35.509-2.137-69.892,9.319-97.077,32.424
	c-7.888,6.703-14.903,14.164-20.981,22.241C2282.256,323.816,2281.653,316.606,2281.653,309.254z M2285.377,340.676
	c23.834-35.276,64.363-57.989,109.131-57.546l-12.373,12.631c-26.368,24.862-41.632,58.469-42.988,94.725
	c-0.381,10.2,0.353,20.273,2.146,30.081C2313.721,402.19,2293.368,373.843,2285.377,340.676z M2415.336,442.937
	c-23.785,0-46.114-6.219-65.464-17.109c-9.861-41.708,1.1-87.244,32.263-119.932l-0.008,17.317
	c-1.149,36.339,12.038,71.012,36.787,97.684c6.842,7.374,14.364,13.891,22.433,19.502
	C2432.932,442.059,2424.237,442.937,2415.336,442.937z M2451.127,438.084c-36.354-22.614-60.676-62.589-61.64-107.726l11.009,11.245
	c24.811,26.79,58.572,42.37,95.066,43.872c1.933,0.08,3.854,0.119,5.775,0.119c8.581,0,17.055-0.79,25.338-2.338
	C2509.111,409.631,2482.429,429.407,2451.127,438.084z M2411.433,342.455l16.593,0.287c1.799,0.069,3.592,0.104,5.383,0.104
	c34.523,0,67.32-12.78,92.861-36.303c7.677-7.07,14.436-14.875,20.219-23.266c1.654,8.404,2.531,17.088,2.531,25.978
	c0,23.755-6.204,46.058-17.068,65.391C2490.06,384.735,2444.246,373.774,2411.433,342.455z"/>
<path style="fill:#231F20;" d="M2415.336,628.655c-78.479,0-142.1,63.621-142.1,142.1c0,78.48,63.62,142.1,142.1,142.1
	c78.48,0,142.1-63.62,142.1-142.1C2557.436,692.276,2493.816,628.655,2415.336,628.655z M2549.018,765.223
	c-21.825,33.555-58.668,56.527-100.881,59.217l28.349-28.396c25.681-25.973,39.773-60.394,39.683-96.933
	c-0.015-5.937-0.41-11.813-1.161-17.607C2535.079,703.901,2547.709,733.101,2549.018,765.223z M2506.039,672.406
	c8.232,39.135-1.605,81.38-29.554,113.09l0.124-40.109c-0.191-36.545-14.569-70.872-40.482-96.658
	c-4.175-4.154-8.572-8.003-13.161-11.545C2454.955,638.982,2483.939,652.017,2506.039,672.406z M2410.178,637.072
	c33.506,21.902,56.405,58.801,58.989,101.046l-28.499-28.5c-25.896-25.624-60.088-39.94-96.516-39.94c-0.116,0-0.233,0-0.35,0.001
	c-5.865,0.015-11.674,0.399-17.401,1.133C2348.845,650.828,2378.06,638.292,2410.178,637.072z M2317.252,679.776
	c39.213-8.199,81.53,1.734,113.23,29.842h-40.469l-0.045,0.044c-36.545,0.192-70.873,14.545-96.658,40.458
	c-4.16,4.18-8.014,8.585-11.56,13.18C2283.521,731.107,2296.674,701.95,2317.252,679.776z M2281.654,776.068
	c21.875-33.463,58.708-56.345,100.887-58.977l-28.309,28.296c-25.705,25.977-39.812,60.416-39.722,96.973
	c0.016,5.958,0.413,11.857,1.171,17.671C2295.556,837.579,2282.911,808.287,2281.654,776.068z M2324.654,869.133
	c-8.257-39.155,1.576-81.432,29.541-113.16v40.117l0.003,0.003c0.239,36.477,14.609,70.733,40.48,96.475
	c4.277,4.256,8.79,8.19,13.501,11.803C2376.012,902.676,2346.86,889.615,2324.654,869.133z M2420.95,904.438
	c-33.581-21.811-56.58-58.656-59.286-100.879l28.508,28.35c25.868,25.481,60.073,39.5,96.394,39.5c0.116,0,0.233,0,0.35,0
	c6.052-0.015,12.041-0.427,17.943-1.208C2482.444,890.393,2453.168,903.109,2420.95,904.438z M2513.929,861.215
	c-39.136,8.33-81.42-1.427-113.188-29.306l39.935-0.007c36.494-0.227,70.768-14.6,96.521-40.48c4.234-4.256,8.15-8.744,11.749-13.43
	C2547.239,810.019,2534.271,839.055,2513.929,861.215z"/>
<path style="fill:#231F20;" d="M2415.336,1089.691c-78.479,0-142.1,63.62-142.1,142.1s63.62,142.1,142.1,142.1
	s142.101-63.62,142.101-142.1S2493.815,1089.691,2415.336,1089.691z M2530.177,1163.337c1.54,32.771-9.185,66.02-32.188,92.124
	v-57.862l0,0c0-0.001,0-0.002,0-0.002v-0.042l-0.001-0.001c-0.188-33.785-12.519-65.666-34.879-90.646
	C2491.293,1117.695,2514.889,1137.745,2530.177,1163.337z M2415.336,1098.107c11.322,0,22.314,1.414,32.814,4.063
	c24.269,22.09,40.2,53.195,42.387,87.932l-40.928-40.929l0.012-0.012c-24.029-23.778-55.305-37.613-88.797-39.466
	C2377.473,1102.252,2395.92,1098.107,2415.336,1098.107z M2346.923,1116.926c32.777-1.536,66.032,9.196,92.137,32.212h-57.891
	v-0.024c-33.813,0.179-65.722,12.519-90.716,34.903C2301.247,1155.818,2321.313,1132.213,2346.923,1116.926z M2281.653,1231.791
	c0-11.32,1.413-22.311,4.062-32.809c22.091-24.285,53.207-40.229,87.957-42.417l-40.928,40.928l-0.012-0.011
	c-23.795,24.047-37.633,55.352-39.469,88.871C2285.805,1269.692,2281.653,1251.227,2281.653,1231.791z M2300.499,1300.252
	c-1.554-32.787,9.169-66.059,32.184-92.179v57.954l0.003,0.003c0.202,33.801,12.555,65.692,34.947,90.671
	C2339.421,1345.921,2315.8,1325.862,2300.499,1300.252z M2415.336,1365.475c-11.296,0-22.262-1.408-32.739-4.046
	c-24.298-22.081-40.254-53.194-42.456-87.944l40.959,40.96h0.03c24.042,23.755,55.324,37.569,88.817,39.397
	C2453.272,1361.314,2434.791,1365.475,2415.336,1365.475z M2483.839,1346.604c-32.781,1.558-66.048-9.157-92.167-32.159h57.9
	l0.027-0.026c33.79-0.201,65.672-12.547,90.647-34.925C2529.473,1307.689,2509.43,1331.302,2483.839,1346.604z M2457.053,1306.964
	l40.937-40.937V1266c23.754-24.028,37.573-55.295,39.418-88.773c7.459,16.662,11.612,35.128,11.612,54.564
	c0,11.298-1.408,22.266-4.047,32.744C2522.893,1288.817,2491.79,1304.762,2457.053,1306.964z"/>
<path style="fill:#231F20;" d="M2415.336,1548.646c-78.479,0-142.1,63.621-142.1,142.101s63.62,142.1,142.1,142.1
	s142.101-63.62,142.101-142.1S2493.815,1548.646,2415.336,1548.646z M2549.024,1690.675c-5.312,12.757-12.737,24.827-22.28,35.668
	v-81.736l-0.002-0.002c-0.067-11.651-1.584-23.075-4.451-34.069C2539.063,1632.861,2549.007,1660.606,2549.024,1690.675z
	 M2509.855,1596.207c5.251,12.77,8.523,26.544,9.434,40.944l-57.683-57.683l0.03-0.031c-8.319-8.232-17.511-15.267-27.358-21.033
	C2463.608,1562.565,2489.879,1576.236,2509.855,1596.207z M2415.32,1557.063c12.76,5.312,24.833,12.737,35.676,22.282h-81.808
	l-0.005,0.005c-11.695,0.086-23.157,1.632-34.186,4.539C2357.36,1567.052,2385.173,1557.066,2415.32,1557.063z M2320.639,1596.387
	c12.803-5.311,26.624-8.631,41.079-9.571l-57.537,57.537l-0.024-0.024c-8.308,8.396-15.396,17.681-21.19,27.631
	C2287.092,1642.644,2300.716,1616.379,2320.639,1596.387z M2281.647,1690.97c5.295-12.818,12.721-24.949,22.279-35.844v81.773
	l0.017,0.017c0.141,11.814,1.768,23.39,4.788,34.513C2291.776,1749.06,2281.695,1721.192,2281.647,1690.97z M2321.409,1785.88
	c-5.485-12.899-8.938-26.854-9.965-41.463l56.868,56.868l-0.014,0.015c0.27,0.267,0.545,0.524,0.816,0.788l0.073,0.073h0.002
	c8.515,8.277,17.913,15.325,27.985,21.05C2367.817,1819.223,2341.491,1805.709,2321.409,1785.88z M2416.447,1824.429
	c-13.091-5.215-25.49-12.642-36.625-22.268h81.66l0.012-0.012c11.766-0.119,23.295-1.713,34.379-4.688
	C2473.749,1814.188,2446.263,1824.186,2416.447,1824.429z M2510.287,1784.857c-12.86,5.415-26.761,8.813-41.307,9.806l57.764-57.764
	v-0.013c8.197-8.299,15.205-17.463,20.951-27.28C2543.578,1738.771,2530.056,1764.912,2510.287,1784.857z"/>
</svg>
